<?xml version="1.0" standalone="no"?>
<!DOCTYPE svg PUBLIC "-//W3C//DTD SVG 20010904//EN" "http://www.w3.org/TR/2001/REC-SVG-20010904/DTD/svg10.dtd">
<svg version="1.0" xmlns="http://www.w3.org/2000/svg" width="3464.000000pt" height="3464.000000pt"
  viewBox="0 0 3464.000000 3464.000000" preserveAspectRatio="xMidYMid meet">
  <metadata>
    Created by potrace 1.16, written by Peter Selinger 2001-2019
  </metadata>
  <g transform="translate(0.000000,3464.000000) scale(0.100000,-0.100000)" fill="#fff" stroke="none">
    <path d="M16875 30039 c-280 -7 -368 -13 -745 -45 -1085 -94 -2088 -305 -3150
-662 -2555 -861 -4840 -2522 -6467 -4703 -872 -1169 -1534 -2433 -1993 -3808
-585 -1750 -801 -3618 -634 -5476 248 -2761 1327 -5347 3119 -7475 1156 -1374
2588 -2511 4187 -3328 1189 -608 2457 -1033 3771 -1266 473 -84 995 -145 1567
-182 330 -22 1190 -25 1500 -6 673 42 1240 110 1785 213 1285 243 2495 657
3645 1246 2258 1157 4158 2940 5458 5123 970 1629 1591 3467 1801 5332 129
1137 119 2231 -30 3353 -421 3183 -1986 6127 -4399 8274 -1151 1024 -2418
1819 -3840 2408 -676 280 -1529 547 -2230 697 -710 153 -1146 214 -2020 286
-129 11 -823 31 -958 28 -42 0 -207 -5 -367 -9z m-2348 -5562 c145 -32 204
-71 243 -160 51 -114 18 -265 -107 -489 -88 -158 -141 -285 -166 -394 l-20
-90 37 -270 c31 -227 63 -387 204 -1028 l167 -760 6 515 c4 359 9 528 18 561
17 63 65 135 212 317 193 239 182 218 195 351 7 63 22 160 34 215 26 119 23
236 -9 328 -11 31 -18 57 -15 57 11 0 132 -86 199 -141 174 -143 382 -394 451
-544 24 -52 26 -65 20 -129 -4 -39 -8 -105 -9 -146 -2 -61 -8 -89 -36 -149
-61 -135 -64 -367 -12 -751 12 -82 140 -668 330 -1498 171 -750 311 -1371 311
-1380 0 -35 -162 -769 -177 -800 -22 -46 -59 -72 -104 -72 -31 0 -41 5 -57 33
-11 17 -28 59 -36 92 -9 33 -168 768 -353 1634 l-338 1574 -3 -1441 -2 -1442
170 -767 c188 -846 233 -1032 292 -1203 48 -140 87 -214 139 -269 55 -56 90
-73 160 -72 109 0 193 61 244 177 36 81 106 287 159 464 26 89 310 1348 671
2970 344 1548 643 2878 665 2955 82 292 94 351 94 480 1 174 -35 282 -143 429
-53 73 -142 259 -187 393 -36 105 -36 183 0 257 15 30 41 67 59 82 50 43 147
83 254 107 l98 22 1455 0 c1369 0 1460 -1 1545 -18 164 -34 284 -109 327 -204
26 -59 25 -153 -2 -222 -26 -68 -85 -168 -168 -291 -83 -120 -176 -312 -202
-414 -32 -127 -27 -197 41 -546 39 -198 1331 -6180 1365 -6320 45 -184 135
-344 218 -387 19 -10 55 -16 93 -16 177 1 278 150 349 513 9 47 306 1377 659
2955 691 3081 765 3435 745 3558 -20 129 -78 255 -196 431 -85 126 -180 308
-215 411 -34 99 -34 248 0 317 50 102 160 170 342 210 l104 23 1315 0 c1229 0
1321 -1 1410 -18 299 -57 445 -162 458 -328 8 -106 -39 -219 -134 -319 -96
-102 -346 -395 -375 -440 -61 -94 -169 -417 -253 -762 -106 -428 -2770 -12274
-2831 -12582 -71 -363 -71 -366 -34 -485 31 -98 82 -191 197 -361 162 -238
215 -370 190 -471 -9 -33 -27 -60 -73 -105 -91 -92 -206 -143 -401 -179 -80
-14 -219 -16 -1324 -12 -1140 3 -1241 4 -1309 21 -213 51 -311 158 -312 340 0
109 20 159 171 421 129 223 220 446 220 536 0 23 -12 111 -26 197 -37 222
-1476 6846 -1525 7021 -67 237 -134 399 -201 482 -46 57 -116 90 -192 91 -207
1 -332 -194 -430 -672 -14 -69 -336 -1533 -716 -3255 -625 -2827 -830 -3791
-830 -3893 0 -109 75 -276 225 -497 59 -88 126 -198 149 -245 38 -79 41 -91
41 -170 0 -72 -4 -93 -27 -136 -55 -104 -172 -178 -348 -220 -70 -17 -168 -18
-1407 -21 l-1333 -4 -187 -191 c-507 -515 -1031 -898 -1683 -1227 -805 -408
-1569 -620 -2421 -672 -1160 -71 -2206 296 -3099 1087 -125 111 -214 200 -190
191 8 -3 134 -53 279 -112 476 -191 909 -340 1206 -414 728 -182 1705 -184
2485 -6 772 177 1436 500 2185 1064 462 347 851 714 1166 1101 172 211 193
248 224 396 21 101 19 140 -25 380 -93 514 -169 865 -522 2423 l-373 1645 -3
-890 c-3 -904 3 -1131 34 -1284 18 -89 88 -232 212 -435 218 -357 250 -431
259 -585 28 -461 -564 -1359 -1302 -1975 -676 -565 -1526 -955 -2362 -1084
-352 -55 -834 -72 -1163 -43 -456 41 -878 129 -1325 277 -300 98 -490 176
-750 305 -359 179 -647 372 -840 565 -247 246 -338 450 -313 697 11 99 -1 64
353 1073 327 936 333 950 485 1106 95 98 156 133 261 150 125 20 231 -17 296
-104 59 -77 199 -321 348 -602 74 -139 109 -195 184 -287 225 -280 629 -533
1006 -631 176 -46 269 -58 450 -58 293 0 542 41 814 136 326 114 575 262 788
470 l113 111 -3 6084 c-3 5525 -5 6092 -19 6165 -47 235 -54 248 -253 465
-213 232 -230 264 -230 425 0 97 3 116 25 158 45 89 137 151 260 176 30 6 64
13 75 15 11 2 706 3 1545 2 1360 -2 1533 -4 1597 -19z m7703 -1006 c109 -85
295 -265 373 -361 67 -84 120 -186 138 -267 11 -47 9 -75 -11 -206 -12 -84
-33 -185 -46 -226 -47 -145 -54 -246 -29 -438 19 -142 45 -272 90 -453 18 -74
140 -619 270 -1210 l237 -1075 -77 -345 c-85 -381 -93 -411 -137 -464 -54 -65
-114 -35 -157 79 -21 55 -707 3228 -821 3795 -62 308 -84 467 -75 540 4 30 24
125 46 210 65 259 89 380 89 442 0 69 -8 70 110 -21z m6641 -376 c105 -131
149 -237 149 -360 0 -166 -51 -247 -342 -551 -120 -125 -140 -151 -181 -235
-57 -119 -103 -257 -161 -490 -25 -101 -626 -2735 -1335 -5854 -710 -3118
-1306 -5740 -1326 -5825 -138 -591 -172 -782 -182 -1004 -10 -236 30 -431 145
-723 118 -296 163 -456 163 -586 0 -152 -34 -238 -131 -331 -91 -87 -225 -145
-423 -183 -85 -17 -177 -18 -1137 -18 -790 0 -1065 3 -1125 13 -166 26 -285
112 -637 461 -142 140 -256 256 -255 258 2 2 26 -4 53 -12 27 -8 94 -24 149
-37 l100 -23 1210 0 c1107 0 1218 1 1302 17 140 27 195 51 246 108 67 74 84
169 51 281 -23 76 -101 239 -185 384 -117 205 -159 334 -159 502 0 75 9 130
45 285 25 106 679 3015 1455 6464 775 3449 1421 6318 1435 6375 89 348 180
512 440 789 225 240 285 352 302 564 l6 80 136 -140 c75 -76 161 -170 192
-209z m-9051 -8060 c35 -18 72 -65 94 -120 9 -22 52 -221 96 -442 l79 -403
-474 -2153 c-268 -1217 -498 -2237 -529 -2348 -54 -195 -115 -539 -147 -832
-20 -182 11 -336 130 -645 151 -390 199 -624 162 -779 -41 -171 -205 -290
-481 -351 l-115 -26 -1050 -4 c-728 -2 -1081 0 -1150 8 -357 40 -562 157 -777
447 -77 104 -183 271 -176 278 2 2 26 -3 53 -11 28 -8 115 -25 195 -36 139
-20 193 -21 1273 -25 993 -4 1141 -2 1237 11 225 34 341 95 396 211 55 115 25
232 -159 621 -88 186 -116 281 -124 414 -6 110 12 234 82 555 106 487 1257
5514 1271 5552 19 51 50 93 70 93 8 0 28 -7 44 -15z m7465 -5117 c248 -82 424
-334 425 -610 0 -107 -15 -168 -67 -278 -38 -79 -59 -108 -127 -175 -127 -126
-240 -175 -406 -175 -164 0 -280 49 -400 170 -83 83 -126 155 -161 270 -31 98
-33 283 -5 375 100 333 435 524 741 423z m734 -518 c89 -127 131 -255 131
-407 0 -237 -96 -454 -277 -623 -299 -280 -732 -263 -993 40 -30 35 -48 61
-40 58 8 -4 53 -22 100 -42 165 -68 268 -81 421 -51 139 26 245 78 354 171
113 98 218 267 260 419 31 114 31 304 -1 463 -4 17 -4 32 -2 32 3 0 24 -27 47
-60z" />
  </g>
</svg>